<?xml version="1.0" encoding="utf-8"?>
<!-- Generator: Adobe Illustrator 16.0.0, SVG Export Plug-In . SVG Version: 6.00 Build 0)  -->
<!DOCTYPE svg PUBLIC "-//W3C//DTD SVG 1.1//EN" "http://www.w3.org/Graphics/SVG/1.1/DTD/svg11.dtd">
<svg version="1.1" id="Layer_1" xmlns="http://www.w3.org/2000/svg" xmlns:xlink="http://www.w3.org/1999/xlink" x="0px" y="0px"
	 width="49px" height="45px" viewBox="0 0 49 45" enable-background="new 0 0 49 45" xml:space="preserve">
<g>
	<polygon fill="#F43F00" points="15.174,29.587 5.541,13.203 8.706,7.227 18.549,23.962 	"/>
	<polygon fill="#F78C00" points="28.034,23.962 18.549,23.962 15.174,29.587 24.764,29.587 	"/>
	<polygon fill="#F78C00" points="19.314,7.186 8.706,7.227 12.292,13.324 15.597,13.324 	"/>
	<polygon fill="#0031CC" points="19.006,21.377 24.295,12.776 21.341,7.089 15.772,15.946 	"/>
	<polygon fill="#3865F4" points="40.11,7.059 43.459,12.913 24.157,12.913 21.328,7.104 	"/>
	<polygon fill="#0031CC" points="38.132,22.169 34.898,16.543 36.999,12.913 43.459,12.913 	"/>
	<polygon fill="#209604" points="25.617,14.714 32.12,14.714 36.972,23.118 30.274,23.118 	"/>
	<polygon fill="#28CE05" points="27.427,39.94 20.36,39.94 30.274,23.118 36.972,23.118 	"/>
	<polygon fill="#209604" points="15.966,31.05 22.229,31.058 23.835,34.043 20.36,39.94 	"/>
</g>
</svg>
